<svg id="Layer_1" data-name="Layer 1" xmlns="http://www.w3.org/2000/svg" viewBox="0 0 790.75 790.92"><title>logo2Artboard 19</title><path d="M596.14,672.39q-2.77,2-5.6,4c-3.38,2.38-6.8,4.68-10.28,6.93A343.76,343.76,0,0,1,452.34,733.5a348.46,348.46,0,0,1-56.22,5.31,348.12,348.12,0,0,0,185.14-55.49c3.47-2.25,6.89-4.55,10.27-6.93,1.88-1.3,3.75-2.64,5.61-4ZM736.25,347.27l-1,.17c.11.76.21,1.51.3,2.27,0,.06,0,.11,0,.17l1-.17C736.47,348.9,736.36,348.08,736.25,347.27Z" style="fill:#dd6b20"/><path d="M596.14,672.39q-2.77,2-5.6,4l-395.74-.2q-2.82-2-5.58-4Z" style="fill:none"/><path d="M597.14,672.39c-1.86,1.36-3.73,2.7-5.61,4-3.38,2.38-6.8,4.68-10.27,6.93a348.12,348.12,0,0,1-185.14,55.49,348.46,348.46,0,0,0,56.22-5.31,343.76,343.76,0,0,0,127.92-50.18c3.48-2.25,6.9-4.55,10.28-6.93q2.82-2,5.6-4Z" style="fill:#fefefe"/><path d="M736.25,347.27l-1,.17c.11.76.21,1.51.3,2.27,0,.06,0,.11,0,.17l1-.17C736.47,348.9,736.36,348.08,736.25,347.27ZM653.81,293l-13,2.29L127.32,385.83l-3,.54v-.18l-1,.18c1.84-148.11,123.8-267.61,274-267.61,1.83,0,3.65,0,5.46,0s3.57.09,5.35.15a274.4,274.4,0,0,1,125.69,35.2,275,275,0,0,0-136.5-35.9c-72.72,0-141.25,27.85-193,78.41s-80.62,117.89-81.51,189.69V387l3.64-.65,513.47-90.53,14-2.47Z" style="fill:#fff"/><path d="M773.2,344.28c-.15-1.16-.3-2.32-.47-3.48q-1-7.35-2.3-14.72C733.6,117.22,534.43-22.23,325.58,14.59c-187,33-318.33,196-317.38,379.7A383.06,383.06,0,0,0,128.8,672.16c85.25,80.25,206,120.66,330.14,98.77A383.94,383.94,0,0,0,774,435.76c0-.31.07-.61.1-.92q1.08-9.79,1.64-19.7a1.64,1.64,0,0,0,0-.22q.39-6.89.53-13.81c0-1.85.06-3.71.07-5.56,0-.28,0-.55,0-.83A384.14,384.14,0,0,0,773.2,344.28ZM591.53,676.39c-3.38,2.38-6.8,4.68-10.27,6.93a348.12,348.12,0,0,1-185.14,55.49l-3.29,0h-1a345.26,345.26,0,0,1-198-62.64q-2.82-2-5.58-4h1l406.92.2h1C595.28,673.75,593.41,675.09,591.53,676.39ZM735.59,349.88l-.51.09-64.31,11.38,0-.25-13.1,2.31-1,.17c0-.06,0-.11,0-.17L133.79,455.6l-2.28.4c.32,1.28.66,2.55,1,3.82a267.2,267.2,0,0,0,20,51.91l.92-.16a269.22,269.22,0,0,0,16.8,28.52h0l1.53,0,445.94-4.82,11.82-.13A267.34,267.34,0,0,0,663,459.67l59.28,37.15c-.35,1.11-.71,2.22-1.07,3.33a345.4,345.4,0,0,1-45.56,91.07q-4,5.7-8.19,11.21h-2.89l-61.61,0-34.84,0H557l-327.48-.16h-1.34l-39.63,0-67,0h-4.76q-7.89-10.38-15-21.39A343.76,343.76,0,0,1,51.52,452.84a348.19,348.19,0,0,1-5.32-58.37A345.78,345.78,0,0,1,332.18,52a348.57,348.57,0,0,1,57.24-5.31l3.75,0A345.79,345.79,0,0,1,733,332.68q1.31,7.38,2.27,14.76l1-.17c.11.81.22,1.63.32,2.44Z" style="fill:#dd6b20"/><path d="M122.77,387v-.61c.89-71.8,29.84-139.17,81.51-189.69s120.25-78.41,193-78.41a275,275,0,0,1,136.5,35.9c1,.58,2.07,1.17,3.1,1.78a272.75,272.75,0,0,1,117.38,137l-.43.08.12.31-14,2.47L126.41,386.32Z" style="fill:#fff"/><path d="M663,459.67l59.28,37.15a345.38,345.38,0,0,1-46.63,94.4q-4,5.7-8.19,11.21h-2.89l-61.61,0-34.84,0H557l-327.48-.16h-1.34l-39.63,0-67,0h-3.76q-7.89-10.38-15-21.39A345.9,345.9,0,0,1,333.18,52a348.81,348.81,0,0,1,56.24-5.31l3.75,0A345.79,345.79,0,0,1,733,332.68q1.31,7.38,2.27,14.76c.11.76.21,1.51.3,2.27,0,.06,0,.11,0,.17l-64.82,11.47,0-.25-13.1,2.31-1,.17c0-.06,0-.11,0-.17L133.79,455.6l-2.28.4a266.78,266.78,0,0,0,21,55.73l.92-.16a269.22,269.22,0,0,0,16.8,28.52h0l1.53,0,445.94-4.82,11.82-.13A267.34,267.34,0,0,0,663,459.67Z" style="fill:#fff"/><path d="M653.81,293l-.1-.26a271.55,271.55,0,0,0-99.14-125.51q-8.67-6-17.71-11.3c-1-.61-2.06-1.2-3.1-1.78a275,275,0,0,0-136.5-35.9c-72.72,0-141.25,27.85-193,78.41s-80.62,117.89-81.51,189.69V387l3.64-.65,513.47-90.53,14-2.47ZM397.26,118.76c1.83,0,3.65,0,5.46,0s3.57.09,5.35.15c112.15,4.32,207,75.28,245.17,174l-13.45,2.37L126.32,385.83l-2,.36-1,.18C125.12,238.26,247.08,118.76,397.26,118.76Z" style="fill:#dd6b20"/><path d="M653.24,292.93l-13.45,2.37L126.32,385.83l-2,.36-1,.18c1.84-148.11,123.8-267.61,274-267.61,1.83,0,3.65,0,5.46,0s3.57.09,5.35.15C520.22,123.28,615.07,194.24,653.24,292.93Z" style="fill:#dd6b20"/><path d="M736.57,349.71l-1,.17c0-.06,0-.11,0-.17-.09-.76-.19-1.51-.3-2.27l1-.17C736.36,348.08,736.47,348.9,736.57,349.71Z" style="fill:#dd6b20"/><path d="M780.31,395.55a384,384,0,0,0-3.11-47.27q-1.16-9.09-2.77-18.2C737.6,121.22,538.43-18.23,329.58,18.59,144,51.32,13.17,212.27,12.2,394.29A383.1,383.1,0,0,0,132.8,676.16c85.25,80.25,206,120.66,330.14,98.77A383.94,383.94,0,0,0,778,439.76c0-.31.07-.61.1-.92q1.08-9.79,1.64-19.7a1.64,1.64,0,0,0,0-.22q.57-10.05.61-20.2C780.32,397.66,780.32,396.61,780.31,395.55ZM58.92,319.47c.62-2.7,1.27-5.4,2-8.08,0-.15.07-.3.11-.44a346,346,0,0,1,676,25.73q1.17,6.65,2.08,13.29c.17,1.25.33,2.49.49,3.74l.15,1.18L673.89,366.5l-13.1,2.31c0-.37-.07-.76-.12-1.14l0-.26L137.79,459.6l-1.28.22-1,.18a268.22,268.22,0,0,0,37.74,84.1l1.53,0,445.94-4.82,11.82-.13a267.49,267.49,0,0,0,33.65-76l59.06,37,1.07.67a345.38,345.38,0,0,1-46.63,94.4q-4,5.7-8.19,11.21h-3.89l-61.61,0-34.84,0H560l-327.48-.16h-1.34l-39.63,0-67,0h-3.76q-7.89-10.38-15-21.39A346.26,346.26,0,0,1,58.92,319.47ZM395.83,742.83a345.26,345.26,0,0,1-198-62.64q-2.82-2-5.58-4h6.58l395.74.2h5.6q-7.77,5.68-15.88,10.93A343.76,343.76,0,0,1,456.34,737.5,347.58,347.58,0,0,1,395.83,742.83Z" style="fill:#dd6b20"/><path d="M589.54,676c-3.38,2.38-6.8,4.68-10.28,6.93a343.76,343.76,0,0,1-127.92,50.18,348.46,348.46,0,0,1-56.22,5.31l-3.29,0a345.26,345.26,0,0,1-198-62.64Z" style="fill:#fff"/></svg>