<svg xmlns="http://www.w3.org/2000/svg" id="Layer_1" data-name="Layer 1" viewBox="0 0 4066.07 1024"><title>logo2Artboard 18</title><path d="M869.54,462.52c0-.1,0-.22,0-.33l-17,3c0,.12,0,.22,0,.34.07.49.12,1,.16,1.48l17-3Q869.62,463.26,869.54,462.52Z" style="fill:#dd6b20"/><path d="M1013.14,448.12q-1.5-11.82-3.6-23.66C961.65,152.85,702.64-28.49,431.05,19.39S-21.9,326.29,26,597.88A497,497,0,0,0,175.15,874.51C286,978.87,443,1031.42,604.47,1003a499.28,499.28,0,0,0,409.65-435.86c0-.41.09-.8.13-1.2q1.41-12.74,2.13-25.62a1.33,1.33,0,0,0,0-.28c.49-8.72.77-17.47.79-26.27A498.4,498.4,0,0,0,1013.14,448.12ZM762.24,889a447.16,447.16,0,0,1-166.35,65.26,452,452,0,0,1-78.69,6.93,449.13,449.13,0,0,1-257.52-81.46q-3.68-2.55-7.26-5.2l530.47.26Q772.8,882.21,762.24,889Zm124.1-119.77q-5.19,7.41-10.65,14.58h-5.06l-80.12,0-45.31,0H730.64l-425.86-.21H303l-51.53,0-87.17,0h-4.89q-10.26-13.5-19.53-27.82a450,450,0,0,1,755.7-489A447.16,447.16,0,0,1,960.87,433q1.95,11.08,3.34,22.15c.06.5.13,1,.19,1.53l-85.6,15.1-17,3c0-.48-.09-1-.15-1.48,0-.12,0-.22,0-.34L181.64,592.89l-3,.52a348.8,348.8,0,0,0,49.08,109.36l2,0,579.91-6.27,15.38-.17a348,348,0,0,0,43.75-98.83l78.2,49A449.11,449.11,0,0,1,886.34,769.25Z" style="fill:#dd6b20"/><path d="M869.54,462.52c0-.1,0-.22,0-.33l-17,3c0,.12,0,.22,0,.34.07.49.12,1,.16,1.48l17-3Q869.62,463.26,869.54,462.52Z" style="fill:#fefefe"/><path d="M782.89,874.81q-10.1,7.4-20.65,14.21a447.16,447.16,0,0,1-166.35,65.26,452,452,0,0,1-78.69,6.93,449.13,449.13,0,0,1-257.52-81.46q-3.68-2.55-7.26-5.2Z" style="fill:#fefefe"/><path d="M869.69,464l-17,3c0-.48-.09-1-.16-1.48,0-.12,0-.22,0-.34l17-3c0,.11,0,.23,0,.33Q869.62,463.26,869.69,464Z" style="fill:#dd6b20"/><text transform="translate(1178.38 741.6)" style="font-size:780.255615234375px;fill:#fff;font-family:MontserratAlternates-SemiBold,Montserrat Alternates;font-weight:700;letter-spacing:-.019994198866244442em">e<tspan x="468.93" y="0" style="letter-spacing:-.025000571039325993em">v</tspan><tspan x="900.4" y="0" style="letter-spacing:-.009998976822687126em">ansit</tspan></text><path d="M955.11,447.38l-85.57,15.14q.08.74.15,1.5l85.61-15.1C955.24,448.41,955.17,447.89,955.11,447.38Z" style="fill:#fefefe"/><path d="M825,696.31l-15.38.17-579.91,6.27-2,0a348.8,348.8,0,0,1-49.08-109.36l3-.52L861.57,473l17-3c0,.1,0,.22,0,.32l85.57-15.13q-1.38-11.08-3.34-22.15a450.06,450.06,0,0,0-881.8-22.38,451.29,451.29,0,0,0,60.84,345q9.27,14.31,19.53,27.82h4.89l87.17,0,51.53,0h1.75l425.86.21H745.2l45.31,0,80.12,0h5.06q5.46-7.16,10.65-14.58A449.11,449.11,0,0,0,947,646.49l-78.2-49A348,348,0,0,1,825,696.31ZM168,502.86c2.39-192.61,161-348,356.29-348,151.93,0,281.65,94.05,332.89,226.5l-17.49,3.08L171.93,502.16Z" style="fill:#fefefe"/><path d="M857.15,381.35l-17.49,3.08L171.93,502.16l-4,.7c2.39-192.61,161-348,356.29-348C676.19,154.85,805.91,248.9,857.15,381.35Z" style="fill:#dd6b20;stroke:#dd6b20;stroke-miterlimit:10"/><path d="M1006.62,559l-1.6.28c0-.4.09-.79.13-1.19Z" style="fill:#dd6b20"/><path d="M1006.62,559l-1.6.28c0-.4.09-.79.13-1.19Z" style="fill:#dd6b20"/><path d="M780.29,872.21q-3.62,2.64-7.28,5.2c-4.4,3.09-8.85,6.08-13.37,9a447.16,447.16,0,0,1-166.35,65.26,453.47,453.47,0,0,1-73.11,6.9,452.55,452.55,0,0,0,240.76-72.16c4.51-2.93,9-5.92,13.36-9,2.44-1.69,4.87-3.44,7.29-5.2Zm182.2-422.8-1.27.22c.14,1,.27,2,.39,2.95,0,.08,0,.15,0,.23l1.28-.23C962.78,451.53,962.64,450.47,962.49,449.41Z" style="fill:#dd6b20"/><path d="M780.29,872.21q-3.62,2.64-7.28,5.2l-514.63-.26q-3.67-2.56-7.26-5.2Z" style="fill:none"/><path d="M781.59,872.21c-2.42,1.76-4.85,3.51-7.29,5.2-4.4,3.09-8.85,6.08-13.36,9a452.55,452.55,0,0,1-240.76,72.16,453.47,453.47,0,0,0,73.11-6.9,447.16,447.16,0,0,0,166.35-65.26c4.52-2.93,9-5.92,13.37-9q3.66-2.56,7.28-5.2Z" style="fill:#fefefe"/><path d="M962.49,449.41l-1.27.22c.14,1,.27,2,.39,2.95,0,.08,0,.15,0,.23l1.28-.23C962.78,451.53,962.64,450.47,962.49,449.41Zm-107.2-70.56-16.94,3L170.62,499.56l-4,.7V500l-1.3.24c2.39-192.61,161-348,356.29-348,2.38,0,4.75,0,7.1.07s4.64.11,7,.19a356.86,356.86,0,0,1,163.45,45.78A357.56,357.56,0,0,0,521.66,151.6c-94.57,0-183.68,36.22-250.94,102s-104.84,153.3-106,246.68V501l4.73-.85L837.17,382.47l18.27-3.22Z" style="fill:#fff"/><path d="M1010.54,445.52c-.19-1.51-.39-3-.61-4.52q-1.29-9.56-3-19.14C959.05,150.25,700-31.1,428.45,16.79,185.29,59.66,14.48,271.73,15.72,510.56A498.1,498.1,0,0,0,172.55,871.91c110.86,104.36,267.86,156.91,429.32,128.44a499.28,499.28,0,0,0,409.65-435.86c0-.41.09-.8.13-1.2q1.41-12.74,2.13-25.62a2.66,2.66,0,0,0,0-.28q.51-9,.69-18c0-2.41.08-4.83.09-7.23,0-.37,0-.72,0-1.08A498.4,498.4,0,0,0,1010.54,445.52ZM774.3,877.41c-4.4,3.09-8.85,6.08-13.36,9a452.55,452.55,0,0,1-240.76,72.16c-1.43,0-2.85,0-4.28,0h-1.3a449.13,449.13,0,0,1-257.52-81.46q-3.67-2.56-7.26-5.2h1.3l529.17.26h1.3C779.17,874,776.74,875.72,774.3,877.41Zm187.33-424.6-.66.11-83.63,14.8c0-.1,0-.22,0-.32l-17,3-1.28.22c0-.08,0-.14,0-.22L179,590.29l-3,.52c.42,1.66.86,3.31,1.3,5a347.91,347.91,0,0,0,26,67.51l1.2-.21a349.8,349.8,0,0,0,21.85,37.09h0l2,0,579.91-6.27,15.37-.17a347.48,347.48,0,0,0,43.57-98.13l77.09,48.31L943,648.22a449.32,449.32,0,0,1-59.25,118.43q-5.19,7.41-10.65,14.58h-3.76l-80.12,0-45.31,0H729.34l-425.86-.21h-1.75l-51.53,0L163,780.86h-6.19q-10.26-13.49-19.53-27.81A447.16,447.16,0,0,1,72.05,586.7a453.35,453.35,0,0,1-6.92-75.91A449.69,449.69,0,0,1,437,65.46a452.79,452.79,0,0,1,74.44-6.9c1.62,0,3.25,0,4.87,0A449.69,449.69,0,0,1,958.27,430.44q1.69,9.6,3,19.19l1.27-.22c.15,1.06.29,2.12.42,3.17Z" style="fill:#dd6b20"/><path d="M164.71,501v-.79c1.16-93.38,38.81-181,106-246.68s156.37-102,250.94-102a357.56,357.56,0,0,1,177.51,46.69q2,1.13,4,2.31A354.62,354.62,0,0,1,855.84,378.75l-.55.1.15.4-18.27,3.22L169.44,500.19Z" style="fill:#fff"/><path d="M867.29,595.58l77.09,48.31a449.11,449.11,0,0,1-60.64,122.76q-5.19,7.41-10.65,14.58h-3.76l-80.12,0-45.31,0H729.34l-425.86-.21h-1.75l-51.53,0L163,780.86h-4.89q-10.26-13.49-19.53-27.81A449.83,449.83,0,0,1,438.33,65.46a453.84,453.84,0,0,1,73.14-6.9c1.62,0,3.25,0,4.87,0A449.69,449.69,0,0,1,958.27,430.44q1.69,9.6,3,19.19c.14,1,.27,2,.39,2.95,0,.08,0,.15,0,.23l-84.29,14.91c0-.1,0-.22,0-.32l-17,3-1.28.22c0-.08,0-.14,0-.22L179,590.29l-3,.52a347.39,347.39,0,0,0,27.32,72.47l1.2-.21a349.8,349.8,0,0,0,21.85,37.09h0l2,0,579.91-6.27,15.37-.17A347.48,347.48,0,0,0,867.29,595.58Z" style="fill:#fff"/><path d="M855.29,378.85l-.13-.34A353.2,353.2,0,0,0,726.23,215.3q-11.26-7.81-23-14.7-2-1.18-4-2.31A357.56,357.56,0,0,0,521.66,151.6c-94.57,0-183.68,36.22-250.94,102s-104.84,153.3-106,246.68V501l4.73-.85L837.17,382.47l18.27-3.22ZM521.66,152.25c2.38,0,4.75,0,7.1.07s4.64.11,7,.19c145.84,5.62,269.19,97.9,318.82,226.24l-17.49,3.08L169.32,499.56l-2.65.46-1.3.24C167.76,307.65,326.36,152.25,521.66,152.25Z" style="fill:#dd6b20"/><path d="M854.54,378.75l-17.49,3.08L169.32,499.56l-2.65.46-1.3.24c2.39-192.61,161-348,356.29-348,2.38,0,4.75,0,7.1.07s4.64.11,7,.19C681.56,158.13,804.91,250.41,854.54,378.75Z" style="fill:#dd6b20"/><path d="M962.91,452.58l-1.28.23c0-.08,0-.15,0-.23-.12-1-.25-2-.39-2.95l1.27-.22C962.64,450.47,962.78,451.53,962.91,452.58Z" style="fill:#dd6b20"/><path d="M1019.79,512.2a501.46,501.46,0,0,0-4-61.47q-1.51-11.84-3.61-23.67C964.25,155.45,705.24-25.89,433.65,22,192.26,64.55,22.18,273.85,20.92,510.56A498.15,498.15,0,0,0,177.75,877.11C288.61,981.47,445.61,1034,607.07,1005.55a499.28,499.28,0,0,0,409.65-435.86c0-.41.09-.8.13-1.2q1.41-12.74,2.13-25.62a1.33,1.33,0,0,0,0-.28c.49-8.72.77-17.47.79-26.27C1019.8,514.94,1019.8,513.57,1019.79,512.2ZM81.68,413.26q1.2-5.26,2.54-10.51c0-.19.1-.39.15-.57a449.94,449.94,0,0,1,879.1,33.46q1.51,8.64,2.7,17.28c.22,1.63.43,3.24.64,4.87.07.5.13,1,.2,1.53l-85.61,15.1-17,3c0-.48-.09-1-.15-1.48,0-.12,0-.22,0-.34L184.24,595.49l-1.66.28-1.3.24a348.55,348.55,0,0,0,49.07,109.36l2,0,579.91-6.27,15.38-.17a348.15,348.15,0,0,0,43.76-98.83l76.8,48.14,1.39.87a449.11,449.11,0,0,1-60.64,122.76q-5.19,7.41-10.65,14.58h-5.06l-80.12,0-45.3,0-14.57,0-425.86-.21h-1.75l-51.53,0-87.17,0H162q-10.26-13.5-19.53-27.82a450.3,450.3,0,0,1-60.83-345ZM519.8,963.81a448.91,448.91,0,0,1-257.52-81.46q-3.67-2.55-7.26-5.2h8.56l514.63.26h7.28q-10.1,7.4-20.65,14.21a447.16,447.16,0,0,1-166.35,65.26A451.94,451.94,0,0,1,519.8,963.81Z" style="fill:#dd6b20"/><path d="M771.71,876.85c-4.4,3.09-8.85,6.08-13.37,9A447.16,447.16,0,0,1,592,951.12a453.47,453.47,0,0,1-73.11,6.9c-1.43,0-2.85,0-4.28,0a449.13,449.13,0,0,1-257.52-81.46Z" style="fill:#fff"/></svg>