<svg id="Layer_1" data-name="Layer 1" xmlns="http://www.w3.org/2000/svg" viewBox="0 0 612 612"><title>logoArtboard 15</title><path d="M408.85,558.38c-1,.4-2.08.81-3.13,1.2s-2.1.79-3.14,1.16-2.11.76-3.16,1.13L396.25,563c-1.05.35-2.11.71-3.17,1L390,565l-.26.08-3,.9c-1.06.32-2.13.63-3.19.93h0c-1.54.44-3.08.86-4.63,1.27s-3.09.81-4.65,1.19-2.91.71-4.37,1l-.51.12c-.64.15-1.27.29-1.91.42-1.63.37-3.27.71-4.91,1l-1.57.31-1.21.24-1.41.26c-1,.18-1.92.35-2.89.51l-2.68.46-2.63.42-1.36.2-1.13.17-1.69.23q-3,.42-6.08.78l-3.17.35a3,3,0,0,0-.31,0l-2.93.28-3.24.28q-2.93.24-5.87.41h0c-.59.05-1.2.08-1.79.11l-1.12.06-1.48.06-2.73.11-2.53.08h-.18l-1.22,0-2.13,0-3.78,0a277.14,277.14,0,0,1-108.63-21.95l-2.5-1.07-2-.88-.88-.39c-.49-.21-1-.43-1.46-.66-.66-.29-1.34-.61-2-.92q-5-2.32-10-4.86l-1.84-1c-1.27-.66-2.54-1.34-3.8-2-.93-.5-1.85-1-2.78-1.53l-2.91-1.64v0c-.93-.53-1.85-1.06-2.77-1.61l-.22-.12c-.74-.43-1.47-.87-2.2-1.31-1.15-.7-2.3-1.4-3.44-2.11l-2.49-1.57-3.22-2.08-2.72-1.81-1.82-1.25c-.24-.15-.49-.32-.72-.49-.39-.26-.77-.53-1.15-.8l-1.69-1.18c-.62-.45-1.25-.89-1.87-1.35s-1.24-.89-1.85-1.34q-3.28-2.41-6.5-4.92c-.6-.46-1.19-.93-1.78-1.4l-.6-.48-1.76-1.41c-2.14-1.73-4.26-3.5-6.34-5.31l0,0-1.15-1-1.75-1.53-.28-.25-2.4-2.16c-1.77-1.61-3.52-3.24-5.26-4.91l-1.86-1.78-.38-.38c-.78-.75-1.54-1.51-2.3-2.28q-2-2-4-4.1Z" style="fill:#fefefe"/><path d="M306-.16c-169,0-306,137-306,306a306,306,0,1,0,612,0C612,136.83,475-.16,306-.16ZM71.83,472l.25-1.15c.33.48.67.95,1,1.42ZM85,462.63l.23-1.08c.32.45.63.89,1,1.34ZM401.24,558.7l-3,1.13-3.06,1.09L392.08,562,389,563l-3,1a1.44,1.44,0,0,1-.25.08l-2.9.88-3.1.9h0c-1.49.43-3,.83-4.48,1.23s-3,.78-4.5,1.15-2.82.68-4.23,1l-.5.11-1.84.41c-1.59.35-3.17.69-4.76,1l-1.52.3-1.17.23-1.36.26c-.93.17-1.87.34-2.81.49s-1.72.31-2.59.44l-2.54.41-1.32.19-1.1.17-1.64.23c-1.95.27-3.91.51-5.87.74l-3.08.34-.3,0-2.83.27c-1,.1-2.09.19-3.14.27q-2.83.24-5.68.4h0l-1.74.1-1.08.06-1.43.06-2.64.11-2.45.07h-.18l-1.18,0-2.06,0L306,576a268.4,268.4,0,0,1-105.16-21.25c-.81-.34-1.62-.68-2.42-1l-1.94-.85-.85-.38-1.41-.63-1.94-.89q-4.87-2.27-9.64-4.71l-1.78-.92c-1.23-.64-2.46-1.3-3.68-2-.9-.48-1.8-1-2.69-1.48s-1.88-1-2.82-1.59h0c-.9-.51-1.79-1-2.68-1.56l-.21-.12-2.13-1.27c-1.11-.67-2.23-1.35-3.33-2l-2.42-1.52-3.11-2L155.15,530l-1.77-1.2-.7-.48-1.11-.77-1.63-1.15c-.61-.43-1.22-.86-1.82-1.3s-1.2-.86-1.78-1.3q-3.19-2.32-6.3-4.77c-.58-.44-1.15-.89-1.72-1.35-.19-.15-.39-.3-.59-.47L136,515.84c-2.08-1.67-4.12-3.39-6.15-5.14l0,0-1.12-1-1.69-1.48-.27-.24c-.78-.69-1.55-1.38-2.32-2.09-1.72-1.56-3.41-3.14-5.1-4.75l-1.8-1.73-.37-.37c-.74-.72-1.48-1.46-2.22-2.2q-2-2-3.89-4l293.18,64.66ZM543.42,338.23v0H103.88c.11.65.21,1.29.32,1.94a203.1,203.1,0,0,0,22.6,64.45l302,64.87a205.67,205.67,0,0,0,69-92h68.8c-.4,1.42-.8,2.85-1.22,4.27A271.32,271.32,0,0,1,458.05,529.18l-16.82-3.71-20-4.41-70.29-15.5L181.47,468.18l-61.76-13.62-31.52-6.95-14.08-3.1A270.36,270.36,0,0,1,200.84,56.93a270.07,270.07,0,0,1,375.3,248.9,274.28,274.28,0,0,1-1.91,32.4Zm14.11,1.93v.06H121v-.06Z" style="fill:#dd6b20"/><path d="M131.42,338.23H574.23a274.28,274.28,0,0,0,1.91-32.4,270.2,270.2,0,0,0-519-105.16,270,270,0,0,0,17,243.84l14.08,3.1,31.52,6.95,61.76,13.62,169.46,37.38,70.29,15.5,20,4.41,16.82,3.71A270.22,270.22,0,0,0,565.32,381.77c.42-1.42.82-2.85,1.22-4.27h-68.8a205.67,205.67,0,0,1-69,92L126.8,404.67a203.1,203.1,0,0,1-22.6-64.45c-.11-.65-.21-1.29-.32-1.94h27.54Zm-27.11-67.36C120.93,174.6,205.05,101.14,306,101.14S491.07,174.6,507.69,270.87c.12.65.23,1.31.34,2H104C104.08,272.18,104.19,271.52,104.31,270.87Z" style="fill:#fefefe"/><path d="M508,272.83H104c.11-.65.22-1.31.34-2H507.69C507.81,271.52,507.92,272.18,508,272.83Z" style="fill:#fff"/><path d="M507.69,270.87H104.31C120.93,174.6,205.05,101.14,306,101.14S491.07,174.6,507.69,270.87Z" style="fill:#dd6b20"/></svg>